<svg width="272" height="35" viewBox="0 0 272 35" fill="none" xmlns="http://www.w3.org/2000/svg">
<path d="M16.7344 21.7266H7.48828L5.73047 27H0.123047L9.65039 1.40625H14.5371L24.1172 27H18.5098L16.7344 21.7266ZM8.91211 17.4551H15.3105L12.0938 7.875L8.91211 17.4551ZM30.0059 7.98047L30.1641 10.1777C31.5234 8.47852 33.3457 7.62891 35.6309 7.62891C37.6465 7.62891 39.1465 8.2207 40.1309 9.4043C41.1152 10.5879 41.6191 12.3574 41.6426 14.7129V27H36.5625V14.8359C36.5625 13.7578 36.3281 12.9785 35.8594 12.498C35.3906 12.0059 34.6113 11.7598 33.5215 11.7598C32.0918 11.7598 31.0195 12.3691 30.3047 13.5879V27H25.2246V7.98047H30.0059ZM44.7188 17.3145C44.7188 15.4277 45.082 13.7461 45.8086 12.2695C46.5352 10.793 47.5781 9.65039 48.9375 8.8418C50.3086 8.0332 51.8965 7.62891 53.7012 7.62891C56.2676 7.62891 58.3594 8.41406 59.9766 9.98438C61.6055 11.5547 62.5137 13.6875 62.7012 16.3828L62.7363 17.6836C62.7363 20.6016 61.9219 22.9453 60.293 24.7148C58.6641 26.4727 56.4785 27.3516 53.7363 27.3516C50.9941 27.3516 48.8027 26.4727 47.1621 24.7148C45.5332 22.957 44.7188 20.5664 44.7188 17.543V17.3145ZM49.7988 17.6836C49.7988 19.4883 50.1387 20.8711 50.8184 21.832C51.498 22.7812 52.4707 23.2559 53.7363 23.2559C54.9668 23.2559 55.9277 22.7871 56.6191 21.8496C57.3105 20.9004 57.6562 19.3887 57.6562 17.3145C57.6562 15.5449 57.3105 14.1738 56.6191 13.2012C55.9277 12.2285 54.9551 11.7422 53.7012 11.7422C52.459 11.7422 51.498 12.2285 50.8184 13.2012C50.1387 14.1621 49.7988 15.6562 49.7988 17.6836ZM70.541 7.98047L70.6992 10.1777C72.0586 8.47852 73.8809 7.62891 76.166 7.62891C78.1816 7.62891 79.6816 8.2207 80.666 9.4043C81.6504 10.5879 82.1543 12.3574 82.1777 14.7129V27H77.0977V14.8359C77.0977 13.7578 76.8633 12.9785 76.3945 12.498C75.9258 12.0059 75.1465 11.7598 74.0566 11.7598C72.627 11.7598 71.5547 12.3691 70.8398 13.5879V27H65.7598V7.98047H70.541ZM93.1465 19.8105L96.6621 7.98047H102.111L94.4648 29.9531L94.043 30.9551C92.9062 33.4395 91.0312 34.6816 88.418 34.6816C87.6797 34.6816 86.9297 34.5703 86.168 34.3477V30.498L86.9414 30.5156C87.9023 30.5156 88.6172 30.3691 89.0859 30.0762C89.5664 29.7832 89.9414 29.2969 90.2109 28.6172L90.8086 27.0527L84.1465 7.98047H89.6133L93.1465 19.8105ZM108.879 7.98047L109.037 10.1074C110.385 8.45508 112.207 7.62891 114.504 7.62891C116.953 7.62891 118.635 8.5957 119.549 10.5293C120.885 8.5957 122.789 7.62891 125.262 7.62891C127.324 7.62891 128.859 8.23242 129.867 9.43945C130.875 10.6348 131.379 12.4395 131.379 14.8535V27H126.281V14.8711C126.281 13.793 126.07 13.0078 125.648 12.5156C125.227 12.0117 124.482 11.7598 123.416 11.7598C121.893 11.7598 120.838 12.4863 120.252 13.9395L120.27 27H115.189V14.8887C115.189 13.7871 114.973 12.9902 114.539 12.498C114.105 12.0059 113.367 11.7598 112.324 11.7598C110.883 11.7598 109.84 12.3574 109.195 13.5527V27H104.115V7.98047H108.879ZM134.508 17.3145C134.508 15.4277 134.871 13.7461 135.598 12.2695C136.324 10.793 137.367 9.65039 138.727 8.8418C140.098 8.0332 141.686 7.62891 143.49 7.62891C146.057 7.62891 148.148 8.41406 149.766 9.98438C151.395 11.5547 152.303 13.6875 152.49 16.3828L152.525 17.6836C152.525 20.6016 151.711 22.9453 150.082 24.7148C148.453 26.4727 146.268 27.3516 143.525 27.3516C140.783 27.3516 138.592 26.4727 136.951 24.7148C135.322 22.957 134.508 20.5664 134.508 17.543V17.3145ZM139.588 17.6836C139.588 19.4883 139.928 20.8711 140.607 21.832C141.287 22.7812 142.26 23.2559 143.525 23.2559C144.756 23.2559 145.717 22.7871 146.408 21.8496C147.1 20.9004 147.445 19.3887 147.445 17.3145C147.445 15.5449 147.1 14.1738 146.408 13.2012C145.717 12.2285 144.744 11.7422 143.49 11.7422C142.248 11.7422 141.287 12.2285 140.607 13.2012C139.928 14.1621 139.588 15.6562 139.588 17.6836ZM167.045 25.0664C165.791 26.5898 164.057 27.3516 161.842 27.3516C159.803 27.3516 158.244 26.7656 157.166 25.5938C156.1 24.4219 155.555 22.7051 155.531 20.4434V7.98047H160.611V20.2676C160.611 22.248 161.514 23.2383 163.318 23.2383C165.041 23.2383 166.225 22.6406 166.869 21.4453V7.98047H171.967V27H167.186L167.045 25.0664ZM186.1 21.7441C186.1 21.123 185.789 20.6367 185.168 20.2852C184.559 19.9219 183.574 19.5996 182.215 19.3184C177.691 18.3691 175.43 16.4473 175.43 13.5527C175.43 11.8652 176.127 10.459 177.521 9.33398C178.928 8.19727 180.762 7.62891 183.023 7.62891C185.438 7.62891 187.365 8.19727 188.807 9.33398C190.26 10.4707 190.986 11.9473 190.986 13.7637H185.906C185.906 13.0371 185.672 12.4395 185.203 11.9707C184.734 11.4902 184.002 11.25 183.006 11.25C182.15 11.25 181.488 11.4434 181.02 11.8301C180.551 12.2168 180.316 12.709 180.316 13.3066C180.316 13.8691 180.58 14.3262 181.107 14.6777C181.646 15.0176 182.549 15.3164 183.814 15.5742C185.08 15.8203 186.146 16.1016 187.014 16.418C189.697 17.4023 191.039 19.1074 191.039 21.5332C191.039 23.2676 190.295 24.6738 188.807 25.752C187.318 26.8184 185.396 27.3516 183.041 27.3516C181.447 27.3516 180.029 27.0703 178.787 26.5078C177.557 25.9336 176.59 25.1543 175.887 24.1699C175.184 23.1738 174.832 22.1016 174.832 20.9531H179.648C179.695 21.8555 180.029 22.5469 180.65 23.0273C181.271 23.5078 182.104 23.748 183.146 23.748C184.119 23.748 184.852 23.5664 185.344 23.2031C185.848 22.8281 186.1 22.3418 186.1 21.7441ZM211.201 23.2559C212.139 23.2559 212.9 22.998 213.486 22.4824C214.072 21.9668 214.377 21.2812 214.4 20.4258H219.164C219.152 21.7148 218.801 22.8984 218.109 23.9766C217.418 25.043 216.469 25.875 215.262 26.4727C214.066 27.0586 212.742 27.3516 211.289 27.3516C208.57 27.3516 206.426 26.4902 204.855 24.7676C203.285 23.0332 202.5 20.6426 202.5 17.5957V17.2617C202.5 14.332 203.279 11.9941 204.838 10.248C206.396 8.50195 208.535 7.62891 211.254 7.62891C213.633 7.62891 215.537 8.30859 216.967 9.66797C218.408 11.0156 219.141 12.8145 219.164 15.0645H214.4C214.377 14.0801 214.072 13.2832 213.486 12.6738C212.9 12.0527 212.127 11.7422 211.166 11.7422C209.982 11.7422 209.086 12.1758 208.477 13.043C207.879 13.8984 207.58 15.293 207.58 17.2266V17.7539C207.58 19.7109 207.879 21.1172 208.477 21.9727C209.074 22.8281 209.982 23.2559 211.201 23.2559ZM227.021 10.0547C228.369 8.4375 230.062 7.62891 232.102 7.62891C236.227 7.62891 238.318 10.0254 238.377 14.8184V27H233.297V14.959C233.297 13.8691 233.062 13.0664 232.594 12.5508C232.125 12.0234 231.346 11.7598 230.256 11.7598C228.768 11.7598 227.689 12.334 227.021 13.4824V27H221.941V0H227.021V10.0547ZM253.23 27C252.996 26.543 252.826 25.9746 252.721 25.2949C251.49 26.666 249.891 27.3516 247.922 27.3516C246.059 27.3516 244.512 26.8125 243.281 25.7344C242.062 24.6562 241.453 23.2969 241.453 21.6562C241.453 19.6406 242.197 18.0938 243.686 17.0156C245.186 15.9375 247.348 15.3926 250.172 15.3809H252.51V14.291C252.51 13.4121 252.281 12.709 251.824 12.1816C251.379 11.6543 250.67 11.3906 249.697 11.3906C248.842 11.3906 248.168 11.5957 247.676 12.0059C247.195 12.416 246.955 12.9785 246.955 13.6934H241.875C241.875 12.5918 242.215 11.5723 242.895 10.6348C243.574 9.69727 244.535 8.96484 245.777 8.4375C247.02 7.89844 248.414 7.62891 249.961 7.62891C252.305 7.62891 254.162 8.2207 255.533 9.4043C256.916 10.5762 257.607 12.2285 257.607 14.3613V22.6055C257.619 24.4102 257.871 25.7754 258.363 26.7012V27H253.23ZM249.029 23.4668C249.779 23.4668 250.471 23.3027 251.104 22.9746C251.736 22.6348 252.205 22.1836 252.51 21.6211V18.3516H250.611C248.068 18.3516 246.715 19.2305 246.551 20.9883L246.533 21.2871C246.533 21.9199 246.756 22.4414 247.201 22.8516C247.646 23.2617 248.256 23.4668 249.029 23.4668ZM267.592 3.30469V7.98047H270.844V11.707H267.592V21.1992C267.592 21.9023 267.727 22.4062 267.996 22.7109C268.266 23.0156 268.781 23.168 269.543 23.168C270.105 23.168 270.604 23.127 271.037 23.0449V26.8945C270.041 27.1992 269.016 27.3516 267.961 27.3516C264.398 27.3516 262.582 25.5527 262.512 21.9551V11.707H259.734V7.98047H262.512V3.30469H267.592Z" fill="#7159C1"/>
</svg>
